nColumns=28
nRows=46
DataType=double
version=3
OpenSimVersion=4.1
endheader
time	ground_force_1_vx	ground_force_1_vy	ground_force_1_vz	ground_force_1_px	ground_force_1_py	ground_force_1_pz	ground_force_1_mx	ground_force_1_my	ground_force_1_mz	ground_force_2_vx	ground_force_2_vy	ground_force_2_vz	ground_force_2_px	ground_force_2_py	ground_force_2_pz	ground_force_2_mx	ground_force_2_my	ground_force_2_mz	ground_force_3_vx	ground_force_3_vy	ground_force_3_vz	ground_force_3_px	ground_force_3_py	ground_force_3_pz	ground_force_3_mx	ground_force_3_my	ground_force_3_mz
6.5	-17.2516	395.374	-23.2748	-0.23615	0.006	-0.473095	0	-6.60868	0	6.3785	529.472	22.9519	-0.215408	0.006	-0.809994	0	1.69165	0	0	0	0	0	0	0	0	0	0
6.51	-16.793	394.085	-23.9264	-0.236337	0.006	-0.473025	0	-6.48855	0	6.81462	527.095	23.1383	-0.215941	0.006	-0.809943	0	1.64412	0	0	0	0	0	0	0	0	0	0
6.52	-16.2381	392.559	-24.5784	-0.236576	0.006	-0.472973	0	-6.36249	0	7.33397	524.567	23.3696	-0.21656	0.006	-0.809892	0	1.5823	0	0	0	0	0	0	0	0	0	0
6.53	-15.5878	390.829	-25.2348	-0.236868	0.006	-0.472937	0	-6.23282	0	7.9125	521.918	23.6541	-0.217257	0.006	-0.809846	0	1.50706	0	0	0	0	0	0	0	0	0	0
6.54	-14.8472	388.954	-25.902	-0.23721	0.006	-0.472916	0	-6.10165	0	8.52652	519.183	23.9976	-0.218024	0.006	-0.809809	0	1.41985	0	0	0	0	0	0	0	0	0	0
6.55	-14.0254	387.007	-26.5862	-0.2376	0.006	-0.472906	0	-5.97062	0	9.15424	516.409	24.4044	-0.218854	0.006	-0.809786	0	1.32276	0	0	0	0	0	0	0	0	0	0
6.56	-13.1338	385.059	-27.2914	-0.238036	0.006	-0.472906	0	-5.84062	0	9.77662	513.656	24.877	-0.219739	0.006	-0.809782	0	1.21841	0	0	0	0	0	0	0	0	0	0
6.57	-12.186	383.165	-28.0168	-0.238513	0.006	-0.472917	0	-5.71178	0	10.3769	510.989	25.4175	-0.220673	0.006	-0.8098	0	1.1097	0	0	0	0	0	0	0	0	0	0
6.58	-11.1976	381.364	-28.7575	-0.239026	0.006	-0.472937	0	-5.58352	0	10.9403	508.469	26.0268	-0.221649	0.006	-0.809843	0	0.999709	0	0	0	0	0	0	0	0	0	0
6.59	-10.1848	379.676	-29.5042	-0.239569	0.006	-0.472967	0	-5.45485	0	11.456	506.141	26.7045	-0.222656	0.006	-0.809917	0	0.891539	0	0	0	0	0	0	0	0	0	0
6.6	-9.16364	378.104	-30.2449	-0.240137	0.006	-0.473007	0	-5.32451	0	11.9182	504.04	27.4474	-0.223686	0.006	-0.810022	0	0.788322	0	0	0	0	0	0	0	0	0	0
6.61	-8.14965	376.635	-30.9656	-0.240725	0.006	-0.473058	0	-5.19114	0	12.327	502.184	28.2503	-0.224725	0.006	-0.810161	0	0.693047	0	0	0	0	0	0	0	0	0	0
6.62	-7.157	375.244	-31.6521	-0.241329	0.006	-0.47312	0	-5.05349	0	12.6863	500.58	29.1063	-0.225759	0.006	-0.810335	0	0.608332	0	0	0	0	0	0	0	0	0	0
6.63	-6.19906	373.895	-32.2911	-0.241941	0.006	-0.473191	0	-4.91081	0	13.0022	499.223	30.0081	-0.226771	0.006	-0.810544	0	0.536137	0	0	0	0	0	0	0	0	0	0
6.64	-5.28867	372.543	-32.8716	-0.242555	0.006	-0.473271	0	-4.76299	0	13.2807	498.096	30.9491	-0.227744	0.006	-0.810789	0	0.477754	0	0	0	0	0	0	0	0	0	0
6.65	-4.43696	371.138	-33.385	-0.24316	0.006	-0.473354	0	-4.61052	0	13.5267	497.168	31.9236	-0.22866	0.006	-0.81107	0	0.433835	0	0	0	0	0	0	0	0	0	0
6.66	-3.65264	369.622	-33.8252	-0.243744	0.006	-0.473436	0	-4.45438	0	13.7394	496.389	32.9257	-0.229501	0.006	-0.811387	0	0.404558	0	0	0	0	0	0	0	0	0	0
6.67	-2.94212	367.941	-34.1882	-0.244296	0.006	-0.473514	0	-4.29585	0	13.9095	495.701	33.949	-0.230244	0.006	-0.811742	0	0.389888	0	0	0	0	0	0	0	0	0	0
6.68	-2.30928	366.049	-34.4724	-0.244804	0.006	-0.473581	0	-4.13655	0	14.0206	495.041	34.9863	-0.230872	0.006	-0.812133	0	0.389788	0	0	0	0	0	0	0	0	0	0
6.69	-1.75495	363.911	-34.678	-0.245257	0.006	-0.473634	0	-3.97831	0	14.0516	494.346	36.0309	-0.231365	0.006	-0.81256	0	0.404202	0	0	0	0	0	0	0	0	0	0
6.7	-1.27631	361.509	-34.8087	-0.245645	0.006	-0.473668	0	-3.82311	0	13.9814	493.558	37.0777	-0.231711	0.006	-0.81302	0	0.433034	0	0	0	0	0	0	0	0	0	0
6.71	-0.868291	358.837	-34.8718	-0.245963	0.006	-0.473679	0	-3.67292	0	13.7931	492.628	38.1239	-0.231901	0.006	-0.813512	0	0.476103	0	0	0	0	0	0	0	0	0	0
6.72	-0.524124	355.903	-34.8776	-0.246207	0.006	-0.473662	0	-3.52957	0	13.4775	491.516	39.1688	-0.231934	0.006	-0.814033	0	0.533012	0	0	0	0	0	0	0	0	0	0
6.73	-0.235883	352.719	-34.8374	-0.246375	0.006	-0.473616	0	-3.39468	0	13.0339	490.191	40.212	-0.231816	0.006	-0.81458	0	0.602975	0	0	0	0	0	0	0	0	0	0
6.74	0.0043975	349.299	-34.7624	-0.246466	0.006	-0.473537	0	-3.26961	0	12.4686	488.63	41.253	-0.231558	0.006	-0.815152	0	0.684779	0	0	0	0	0	0	0	0	0	0
6.75	0.203774	345.652	-34.6626	-0.246482	0.006	-0.473423	0	-3.15552	0	11.7934	486.821	42.2898	-0.231174	0.006	-0.815745	0	0.776814	0	0	0	0	0	0	0	0	0	0
6.76	0.367285	341.783	-34.547	-0.246426	0.006	-0.473274	0	-3.05338	0	11.0239	484.758	43.318	-0.230681	0.006	-0.816354	0	0.87711	0	0	0	0	0	0	0	0	0	0
6.77	0.497675	337.694	-34.4229	-0.246303	0.006	-0.473087	0	-2.96409	0	10.1764	482.446	44.3319	-0.230095	0.006	-0.816973	0	0.98342	0	0	0	0	0	0	0	0	0	0
6.78	0.596766	333.393	-34.2972	-0.246122	0.006	-0.472864	0	-2.88837	0	9.26642	479.898	45.3245	-0.229435	0.006	-0.817599	0	1.09344	0	0	0	0	0	0	0	0	0	0
6.79	0.666727	328.892	-34.1764	-0.245893	0.006	-0.472603	0	-2.82651	0	8.30939	477.138	46.2881	-0.228719	0.006	-0.818227	0	1.20519	0	0	0	0	0	0	0	0	0	0
6.8	0.708049	324.214	-34.0684	-0.245627	0.006	-0.472307	0	-2.77837	0	7.3207	474.194	47.2155	-0.227966	0.006	-0.818853	0	1.3171	0	0	0	0	0	0	0	0	0	0
6.81	0.717416	319.393	-33.9821	-0.24533	0.006	-0.471977	0	-2.74346	0	6.31539	471.099	48.1017	-0.227193	0.006	-0.819472	0	1.42792	0	0	0	0	0	0	0	0	0	0
6.82	0.688556	314.475	-33.928	-0.245007	0.006	-0.471615	0	-2.72104	0	5.30766	467.884	48.944	-0.226418	0.006	-0.82008	0	1.53678	0	0	0	0	0	0	0	0	0	0
6.83	0.613522	309.514	-33.9179	-0.244661	0.006	-0.471222	0	-2.71027	0	4.31095	464.576	49.7406	-0.225655	0.006	-0.820674	0	1.6432	0	0	0	0	0	0	0	0	0	0
6.84	0.485231	304.571	-33.9644	-0.244292	0.006	-0.470799	0	-2.71029	0	3.33857	461.189	50.4903	-0.224915	0.006	-0.821251	0	1.74714	0	0	0	0	0	0	0	0	0	0
6.85	0.300509	299.701	-34.079	-0.243904	0.006	-0.470347	0	-2.72014	0	2.40442	457.721	51.1917	-0.224211	0.006	-0.821808	0	1.8488	0	0	0	0	0	0	0	0	0	0
6.86	0.0608407	294.951	-34.2708	-0.243498	0.006	-0.469866	0	-2.73885	0	1.52143	454.153	51.8446	-0.223548	0.006	-0.822343	0	1.94845	0	0	0	0	0	0	0	0	0	0
6.87	-0.228973	290.351	-34.5462	-0.243078	0.006	-0.469357	0	-2.76543	0	0.700376	450.451	52.4494	-0.22293	0.006	-0.822857	0	2.04631	0	0	0	0	0	0	0	0	0	0
6.88	-0.561338	285.917	-34.9083	-0.242646	0.006	-0.468817	0	-2.79892	0	-0.0511915	446.572	53.0078	-0.22236	0.006	-0.823348	0	2.14248	0	0	0	0	0	0	0	0	0	0
6.89	-0.925847	281.65	-35.3581	-0.242211	0.006	-0.468246	0	-2.83835	0	-0.729184	442.478	53.5235	-0.221837	0.006	-0.823819	0	2.23709	0	0	0	0	0	0	0	0	0	0
6.9	-1.30864	277.551	-35.8961	-0.241781	0.006	-0.467643	0	-2.88273	0	-1.33176	438.143	54.0011	-0.221361	0.006	-0.824272	0	2.33041	0	0	0	0	0	0	0	0	0	0
6.91	-1.69254	273.634	-36.5225	-0.241368	0.006	-0.467005	0	-2.93109	0	-1.85919	433.551	54.4457	-0.220929	0.006	-0.824708	0	2.42281	0	0	0	0	0	0	0	0	0	0
6.92	-2.05918	269.926	-37.2375	-0.240985	0.006	-0.466332	0	-2.98249	0	-2.31446	428.704	54.8626	-0.220541	0.006	-0.825132	0	2.51475	0	0	0	0	0	0	0	0	0	0
6.93	-2.39216	266.476	-38.0416	-0.240642	0.006	-0.465623	0	-3.03607	0	-2.70334	423.625	55.2562	-0.220194	0.006	-0.825544	0	2.60672	0	0	0	0	0	0	0	0	0	0
6.94	-2.67895	263.338	-38.936	-0.240347	0.006	-0.46488	0	-3.09096	0	-3.03346	418.348	55.6297	-0.219886	0.006	-0.825948	0	2.69914	0	0	0	0	0	0	0	0	0	0
6.95	-2.91046	260.57	-39.9226	-0.240103	0.006	-0.464104	0	-3.14613	0	-3.31361	412.91	55.9865	-0.21961	0.006	-0.826348	0	2.79211	0	0	0	0	0	0	0	0	0	0
